<?xml version="1.0" encoding="UTF-8" standalone="no"?> <svg id="icon" xmlns="http://www.w3.org/2000/svg" viewBox="0 0 512 512"><title>sandwich</title><path d="M372.285,241.816a5.374,5.374,0,0,0,2.577-.659l1.879-1.025a5.39,5.39,0,1,0-5.163-9.464l-1.88,1.025a5.391,5.391,0,0,0,2.587,10.123Z"/><path d="M349.3,219.9a5.391,5.391,0,0,0,5.175-3.895l.468-1.622a5.389,5.389,0,1,0-10.355-2.991l-.469,1.622A5.393,5.393,0,0,0,349.3,219.9Z"/><path d="M78.9,296.529a5.394,5.394,0,0,0,5.3-6.425,35.294,35.294,0,0,1,.129-14.826c4.095-17.658,14.778-20.79,15.152-20.894a5.389,5.389,0,0,0,4.063-6.059,128.505,128.505,0,0,1-1.431-26.912c1.207-20.631,18-36.687,38.29-36.687h.3c1.3.011,2.088.081,2.156.087a5.39,5.39,0,0,0,1.084-10.726c-.125-.012-1.279-.124-3.153-.14l-.391,0c-26,0-47.511,20.5-49.051,46.838a136.313,136.313,0,0,0,.957,25.04c-5.568,3.006-14.607,10.311-18.481,27.02a46,46,0,0,0-.208,19.329A5.392,5.392,0,0,0,78.9,296.529Z"/><path d="M141.906,230.668a5.39,5.39,0,0,0-5.163,9.464l1.879,1.025a5.39,5.39,0,0,0,5.163-9.464Z"/><path d="M162.223,207.711a5.391,5.391,0,0,0-3.688,6.671L159,216a5.39,5.39,0,0,0,10.358-2.984L168.9,211.4A5.388,5.388,0,0,0,162.223,207.711Z"/><path d="M74.4,363.737H437.6a18.968,18.968,0,0,0,13.166-32.623l-51.588-49.741a72.587,72.587,0,0,0-68.443-96.728,73.451,73.451,0,0,0-7.414.374,5.39,5.39,0,0,0,1.09,10.725,62.715,62.715,0,0,1,6.324-.32,61.8,61.8,0,0,1,59.751,77.568L316.443,201.6a5.389,5.389,0,1,0-7.482,7.759L443.283,338.874a8.189,8.189,0,0,1-5.683,14.083h-6.31L404.935,327.1a5.389,5.389,0,1,0-7.55,7.693L415.9,352.957H74.4a8.188,8.188,0,0,1-5.682-14.083L228.593,184.723a5.365,5.365,0,0,0,3.708-3.575l18.015-17.372a8.163,8.163,0,0,1,11.368,0L290.742,191.8a5.39,5.39,0,1,0,7.483-7.76l-1.657-1.6c8.846-2.95,15.168-7.31,18.816-12.984.039-.058.208-.3.5-.68a24.856,24.856,0,0,1,18.547-9.688,25.227,25.227,0,0,1,19.664,7.94c5.712,6.094,9.632,11.26,11.036,14.544a5.411,5.411,0,0,0,5.485,3.244c.009,0,.809-.076,2.161-.088h.306c20.292,0,37.083,16.057,38.29,36.687a128.39,128.39,0,0,1-1.431,26.912,5.312,5.312,0,0,0,3.984,6.039c.452.124,11.138,3.256,15.232,20.914a35.309,35.309,0,0,1,.129,14.826,5.39,5.39,0,1,0,10.58,2.068,46.03,46.03,0,0,0-.208-19.329c-3.875-16.709-12.914-24.013-18.481-27.019a136.231,136.231,0,0,0,.956-25.04c-1.535-26.269-22.93-46.729-48.839-46.837a87.942,87.942,0,0,0-11.334-14.292,35.907,35.907,0,0,0-54.63,2.558c-.6.785-.909,1.252-.955,1.324-3.607,5.61-11.8,8.622-18.806,10.225l-18.4-17.745a18.9,18.9,0,0,0-26.331,0l-18.109,17.46c-6.723-1.667-14.219-4.656-17.661-10.012,0,0-.307-.467-.909-1.251a35.879,35.879,0,0,0-50.2-6.568,5.39,5.39,0,0,0,6.549,8.563,25.084,25.084,0,0,1,35.1,4.568c.272.355.437.591.44.591l0,0c3.537,5.5,9.508,9.747,17.786,12.692L122.7,271.852a61.837,61.837,0,0,1,60.05-76.428,62.7,62.7,0,0,1,6.324.32,5.39,5.39,0,0,0,1.09-10.725,73.392,73.392,0,0,0-7.414-.374,72.612,72.612,0,0,0-68.82,95.663L61.234,331.114A18.968,18.968,0,0,0,74.4,363.737Z"/><path d="M380.422,315.985a5.389,5.389,0,0,0,3.775-9.237l-4.037-3.961a5.39,5.39,0,1,0-7.551,7.694l4.038,3.961A5.366,5.366,0,0,0,380.422,315.985Z"/><path d="M265.172,197.513a5.39,5.39,0,0,0,.072,7.621l87.363,85.722a5.39,5.39,0,0,0,7.551-7.694L272.8,197.44A5.391,5.391,0,0,0,265.172,197.513Z"/></svg>