<?xml version="1.0" encoding="utf-8"?>
<!-- Generator: Adobe Illustrator 24.1.3, SVG Export Plug-In . SVG Version: 6.00 Build 0)  -->
<svg version="1.1" id="Layer_1" xmlns="http://www.w3.org/2000/svg" xmlns:xlink="http://www.w3.org/1999/xlink" x="0px" y="0px"
	 viewBox="0 0 86.5219 240.5537" enable-background="new 0 0 86.5219 240.5537" xml:space="preserve">
<g>
	<path d="M60.7295,94.7646c0.0215-0.2324,0.0332-0.4765,0.0332-0.7382c0.0039-0.2852,0.0166-0.5401,0.0308-0.7793
		c-0.7354,1.1738-1.4795,2.4609-2.1763,3.8349c0.5552-0.1992,0.9712-0.4013,1.2334-0.5898
		C60.5401,95.9453,60.5581,95.9004,60.7295,94.7646z"/>
	<path d="M53.7525,62.5967C40.4473,81.2529,19.77,93.8379,16.3179,95.8867c0.2485,0.4824,0.4932,0.9717,0.729,1.4746
		c1.582,0.4297,3.8906,0.7783,6.9121,0.7783h0.3916c0.1992,0,0.3975-0.0039,0.5967-0.0058V97.456c0-4.4101,3.5898-8,8.0029-8
		c1.6382,0,3.1616,0.4971,4.4317,1.3457c1.27-0.8486,2.7934-1.3457,4.4316-1.3457c4.4121,0,8.002,3.5899,8.002,8v0.6778
		c0.1992,0.0019,0.3984,0.0058,0.5976,0.0058h0.3906c2.1153,0,3.8677-0.1738,5.2842-0.4238
		c1.6074-3.5039,3.5899-6.5703,5.1958-8.7842c0.8277-1.1992,1.9873-2.872,3.2075-4.6123c1.94-2.7588,3.9659-5.6113,5.1289-7.0771
		c-0.0009-0.002-0.0019-0.003-0.0029-0.0049c0.334-0.5566,0.6211-1.1631,0.834-1.8418c5.25,7.666,5.875,10.5215,6.3096,18.6152
		c0.0429,0.8067-0.0362,1.5762-0.1133,2.3682c-0.436,5.2998-3.3525,10.3662-7.6177,13.2197
		c-0.02,0.0147-0.0381,0.0313-0.0581,0.0449c-4.1597,2.7842-8.7285,3.8594-13.2891,4.2627c0.7847,3.4161,2.3345,6.128,3.9668,8.9522
		c2.003,3.4639,4.0743,7.0439,4.7432,12.0254c0.3838,1.5029,0.5742,3.5596,0.5742,6.2763c0,2.9249-0.1152,5.5557-0.3535,8.0381
		L64.23,162.5225c2.127-0.5166,5.1738-0.0147,9.8452,2.7792c-5.5-38.288,15.75-24.8173,12-63.9687
		C83.042,69.6631,61.772,63.7139,53.7525,62.5967z"/>
	<path d="M18.5879,232.6924c0.252,4.3828,3.875,7.8613,8.3213,7.8613c3.7686,0,6.9522-2.498,7.9893-5.9287
		c-4.5606-0.1934-10.689-1.0498-15.3692-1.7998C19.2105,232.7803,18.8965,232.7363,18.5879,232.6924z"/>
	<path d="M38.3965,234.625c1.0366,3.4307,4.2188,5.9287,7.9873,5.9287c4.4439,0,8.0689-3.4775,8.3213-7.8613
		c-0.3105,0.0439-0.626,0.0888-0.9458,0.1338C49.0791,233.5752,42.9541,234.4326,38.3965,234.625z"/>
	<path d="M12.9961,229.667c0,0,15.8106,3,23.6514,3s23.6514-3,23.6514-3l2.3183-80.586c0.2178-2.2734,0.3496-4.8554,0.3496-7.9199
		c0-2.7344-0.1972-4.6308-0.5449-5.9043c-1.1265-8.7109-6.98-12.9531-8.7534-21.2109c-1.0923,0.0547-2.1812,0.081-3.2593,0.0898
		l-0.0117,0.0039h-0.0078c-2.8047-0.0039-5.8633-0.1718-9.3516-0.5136c-1.3545-0.1319-2.5957-0.5957-3.6562-1.2989
		c-1.0611,0.7032-2.3023,1.167-3.6563,1.2989c-3.4892,0.3418-6.5478,0.5097-9.3515,0.5136h-0.0088l-0.0118-0.0039
		c-1.5546-0.0127-3.1293-0.0576-4.7075-0.1787c-1.7514,8.3155-7.6411,12.5576-8.7729,21.2979
		c-0.3477,1.2715-0.5449,3.1699-0.5449,5.9062c0,3.0645,0.1318,5.6465,0.3496,7.9199L12.9961,229.667z M38.648,208.834h-4.0005v-2
		h4.0005V208.834z M38.648,204.833h-4.0005v-2h4.0005V204.833z M38.648,200.833h-4.0005v-2h4.0005V200.833z M38.648,196.833h-4.0005
		v-2.001h4.0005V196.833z M38.648,192.832h-4.0005v-2h4.0005V192.832z M38.648,188.832h-4.0005v-2h4.0005V188.832z M38.648,184.832
		h-4.0005v-2.001h4.0005V184.832z M38.648,180.834h-4.0005v-2h4.0005V180.834z M38.648,176.833h-4.0005v-2h4.0005V176.833z
		 M38.648,172.833h-4.0005v-2h4.0005V172.833z M38.648,168.833h-4.0005v-2.001h4.0005V168.833z M38.648,164.832h-4.0005v-2h4.0005
		V164.832z M34.6475,160.832v-2h4.0005v2H34.6475z M38.648,144.833h-4.0005v-1h4.0005V144.833z M38.648,146.833v2h-4.0005v-2H38.648
		z M38.648,150.834v2h-4.0005v-2H38.648z M38.648,154.831v2.001h-4.0005v-2.001H38.648z M59.8028,128.667l0.2426,3.9902
		c-0.6464,0.0401-1.2783,0.0947-1.895,0.1612l-0.436-3.9756C58.3955,128.7685,59.0918,128.709,59.8028,128.667z M55.6358,129.1221
		l0.6342,3.9511c-0.6391,0.1016-1.2607,0.2188-1.8652,0.3467l-0.8349-3.9111C54.2388,129.3652,54.9278,129.2363,55.6358,129.1221z
		 M51.524,130.0019l1.04,3.8643c-0.624,0.1689-1.2285,0.3496-1.8106,0.54l-1.2485-3.7998
		C50.1538,130.3935,50.8277,130.1904,51.524,130.0019z M47.5181,131.3193l1.4565,3.7266c-0.6069,0.2353-1.1865,0.4824-1.7387,0.7353
		l-1.6626-3.6386C46.1929,131.8594,46.8418,131.582,47.5181,131.3193z M43.6758,133.0762l1.8682,3.5371
		c-0.5825,0.3076-1.1275,0.6172-1.6402,0.9267l-2.0708-3.4209C42.4102,133.7695,43.0244,133.4199,43.6758,133.0762z
		 M40.0518,135.2734l2.2739,3.2901c-0.5571,0.3838-1.0576,0.7597-1.5034,1.1123l-2.4824-3.1367
		C38.8477,136.1357,39.42,135.709,40.0518,135.2734z M36.7027,137.9316l1,1.0899c0.2026,0.2129,0.3286,0.3525,0.4028,0.4385
		l1.3022,1.4189c-0.4311,0.3965-0.7504,0.7187-0.9541,0.9346c-0.2031,0.2148-0.267,0.2949-0.267,0.2949v0.0019l-1.5396-1.2783
		l-1.54,1.2764c-0.0044,0-0.0674-0.083-0.2676-0.2949c-0.2031-0.2159-0.52-0.5381-0.9536-0.9346l1.3159-1.4336
		c0.0762-0.0869,0.1933-0.2178,0.376-0.4102l1.0132-1.1035c0.0209,0.0196,0.0351,0.0342,0.0556,0.0537
		C36.6675,137.9658,36.6817,137.9512,36.7027,137.9316z M34.9561,136.5391l-2.4849,3.1367
		c-0.4458-0.3526-0.9463-0.7285-1.5034-1.1123l2.2739-3.293C33.8736,135.709,34.4458,136.1357,34.9561,136.5391z M29.6177,133.0762
		c0.6514,0.3437,1.2656,0.6933,1.8428,1.0429l-2.0708,3.4209c-0.5127-0.3095-1.0576-0.6191-1.6402-0.9267L29.6177,133.0762z
		 M25.7754,131.3193c0.6763,0.2627,1.3252,0.5401,1.9448,0.8233v0.0019l-1.6626,3.6367c-0.5522-0.2529-1.1318-0.5-1.7363-0.7353
		L25.7754,131.3193z M21.7696,130.0039c0.6963,0.1865,1.3701,0.3896,2.0214,0.6025h-0.0024l-1.2461,3.7998
		c-0.5845-0.1904-1.189-0.3711-1.8135-0.542L21.7696,130.0039z M17.6573,129.1221c0.7085,0.1142,1.3974,0.2431,2.0688,0.3867
		l-0.8374,3.9111c-0.6045-0.1279-1.2261-0.2451-1.8628-0.3467L17.6573,129.1221z M13.4908,128.667
		c0.7109,0.042,1.4072,0.1015,2.0883,0.1758l-0.436,3.9756c-0.6167-0.0665-1.2485-0.1211-1.895-0.1612L13.4908,128.667z"/>
	<path d="M38.6172,11.9746c1.0899,0.0947,2.1758,0.2568,3.2461,0.5049c2.4517,0.5713,4.7163,1.5224,6.7554,2.7685
		c0.227-0.9365,0.3608-1.9091,0.3608-2.915C48.9795,5.5225,43.458,0,36.6475,0c-6.8125,0-12.334,5.5225-12.334,12.333
		c0,1.001,0.1323,1.9697,0.3574,2.9014c3.5039-2.1338,7.5996-3.3565,11.959-3.3565C37.292,11.8779,37.9551,11.917,38.6172,11.9746z"
		/>
	<path d="M41.4102,14.4287c-11.293-2.6289-22.5801,4.3926-25.211,15.6855c-2.6308,11.295,4.3926,22.5801,15.6875,25.211
		c11.293,2.6289,22.5782-4.3945,25.209-15.6875C59.7246,28.3447,52.7012,17.0576,41.4102,14.4287z"/>
	<path d="M14.7764,53.8828c1.3496,0,2.4434-3.084,2.4434-5.6318c0-0.4805-0.0498-0.8916-0.1221-1.2686
		c-0.1817-0.9482-0.5679-1.582-1.0811-1.9414c-0.1543-0.1084-0.3188-0.1904-0.4922-0.251v-0.8564v-2.6045
		c0-0.4121-0.3339-0.7461-0.748-0.7461c-0.1426,0-0.2681,0.0508-0.3814,0.1201c-0.2143,0.1309-0.3647,0.3565-0.3647,0.626V44.79
		c-0.9805,0.3418-1.6953,1.4073-1.6953,3.461C12.335,50.7988,13.4287,53.8828,14.7764,53.8828z"/>
	<path d="M58.5166,40.583c-0.4121,0-0.7461,0.334-0.7461,0.7461v2.6416v0.8184c-0.1796,0.0634-0.3501,0.1474-0.5088,0.2617
		c-0.5102,0.3642-0.8925,1.0039-1.0708,1.956c-0.0693,0.3711-0.1176,0.7735-0.1176,1.2442c0,2.5478,1.0957,5.6318,2.4433,5.6318
		c1.3496,0,2.4434-3.084,2.4434-5.6318c0-2.0537-0.7153-3.1201-1.6973-3.4619v-3.46c0-0.2783-0.1592-0.5117-0.3857-0.6406
		C58.7686,40.6279,58.6499,40.583,58.5166,40.583z"/>
	<path d="M6.8242,107.917c0.0289,0.0205,0.0542,0.043,0.0831,0.0635h-0.003c5.083,3.4033,11.0362,4.1045,17.4668,4.1572
		c2.9375-0.0029,6.003-0.1934,9.1602-0.502c1.5337-0.1484,2.8818-0.8632,3.8506-1.9238c0.9687,1.0606,2.3164,1.7754,3.8496,1.9238
		c3.1582,0.3086,6.2226,0.4991,9.1601,0.502c6.4317-0.0527,12.3848-0.7539,17.4668-4.1572h-0.0019
		c0.0239-0.0166,0.0449-0.0362,0.0683-0.0528c3.708-2.4834,6.3374-6.915,6.7334-11.7412c0.0684-0.7109,0.1045-1.4258,0.1045-2.1611
		c-0.0337-4.582-1.2763-9.8399-4.0527-14.9268c-1.1343,1.4961-2.9297,4.0098-4.582,6.3721
		c-1.5108,2.1523-2.9288,4.2041-3.7334,5.3711c0.2519,1.1865,0.3794,2.2793,0.3662,3.1836c0,0.3486-0.0176,0.6758-0.044,0.9795
		c-0.2885,1.9023-0.6343,2.2666-1.6748,3.0986c-0.001,0-0.0014,0.001-0.0014,0.001c-1.438,1.0976-5.3072,2.0859-10.649,2.0332
		c-0.8281,0-1.6875-0.0195-2.5781-0.0557v-2.624c0-3.3154-2.6855-6.001-6-6.001c-1.7578,0-3.334,0.7608-4.4316,1.9658
		c-1.0982-1.205-2.6748-1.9658-4.4317-1.9658c-3.3144,0-6,2.6856-6,6.001v2.624c-0.8906,0.0362-1.751,0.0557-2.5791,0.0557
		c-5.3418,0.0527-9.2109-0.9356-10.6474-2.0332c-0.9898-0.7881-1.3496-1.1729-1.6304-2.8408
		c-0.0161-0.0957-0.0332-0.1797-0.0488-0.2852C12.0147,94.6973,12,94.3789,12,94.0205c-0.0063-0.4395,0.0225-0.9258,0.0777-1.4414
		c0.0908-0.8516,0.2744-1.7988,0.5415-2.794c0.2114,0.3038,0.4262,0.6163,0.6455,0.9434c0.1494-0.0879,0.3257-0.1924,0.5576-0.333
		c0.6533-0.3945,1.6079-0.9844,2.8013-1.7559c2.3867-1.5439,5.7251-3.8173,9.4829-6.7021
		c6.6064-5.0654,14.5039-12.0479,20.8393-20.2236c-2.7485-0.5684-5.6938-0.876-8.8305-0.8614c-0.2491,0-0.4932,0.0196-0.7339,0.0489
		c-0.2412-0.0293-0.4854-0.0489-0.7344-0.0489v-0.0019c-4.4595-0.0205-8.5259,0.6152-12.1924,1.7265
		c-6.8252,2.0684-12.2387,5.8125-16.0473,10.2315C2.5259,79.623,0.0469,87.5068,0,94.0205c0,0.7314,0.0323,1.4551,0.106,2.166
		c0.2012,2.4727,0.9941,4.8389,2.2129,6.8955C3.4771,105.0371,5.0225,106.708,6.8242,107.917z"/>
</g>
</svg>
